# xmcd CD database file
#
# Track frame offsets:
#	150
#	16590
#	30092
#	43226
#	61146
#	81175
#	93941
#	107848
#	121540
#	135494
#
# Disc length: 2087 seconds
#
# Revision: 0
# Processed by: cddbd v1.5.2PL0 Copyright (c) Steve Scherf et al.
# Submitted via: CDex 1.40Beta9
#
DISCID=6808250a
DTITLE=Deby Kelley - Open Road
DYEAR=2006
DGENRE=Country
TTITLE0=Open Road
TTITLE1=I Don't Do Lonely
TTITLE2=Two Of The Lucky Ones
TTITLE3=Talk To You
TTITLE4=This Wall
TTITLE5=Walkin On The blue Side
TTITLE6=Cowboy Rock and Roll
TTITLE7=A Satisfied Me
TTITLE8=Plug My Heart Into The Jukebox
TTITLE9=I Dream of You
EXTD=YEAR: 2006 ID3G: 2
EXTT0=
EXTT1=
EXTT2=
EXTT3=
EXTT4=
EXTT5=
EXTT6=
EXTT7=
EXTT8=
EXTT9=
PLAYORDER=
